<?xml version="1.0" encoding="utf-8"?>
<!-- Generator: Adobe Illustrator 23.0.1, SVG Export Plug-In . SVG Version: 6.00 Build 0)  -->
<svg version="1.1" id="Livello_1" xmlns="http://www.w3.org/2000/svg" xmlns:xlink="http://www.w3.org/1999/xlink" x="0px" y="0px"
	 viewBox="0 0 12 12" style="enable-background:new 0 0 12 12;" xml:space="preserve">
<style type="text/css">
	.st0{fill:#88746A;}
</style>
<title>plus</title>
<desc>Created with Sketch.</desc>
<g id="Symbols">
	<g id="DIALOG" transform="translate(-278.000000, -9.000000)">
		<g id="Group" transform="translate(240.000000, 6.000000)">
			
				<g id="plus" transform="translate(44.000000, 9.000000) rotate(45.000000) translate(-44.000000, -9.000000) translate(38.000000, 3.000000)">
				<g id="Shape">
					<path class="st0" d="M0.5703,5.5194C0.521,5.5688,0.4999,5.7003,0.4999,6c0.0003,0.356,0.0297,0.4751,0.0546,0.5117
						l4.9456-0.0117l-0.0003,4.899c0.0252,0.0715,0.1447,0.1012,0.4999,0.1008c0.356,0.0003,0.4751-0.029,0.5124-0.0539
						L6.4999,6.4999h4.8986C11.4656,6.4758,11.4994,6.3577,11.4994,6l0,0c0-0.3563-0.029-0.4751-0.0532-0.5117L6.4999,5.5001V0.6014
						C6.4751,0.5296,6.356,0.5002,6,0.5006C5.6433,0.5002,5.5246,0.5292,5.4876,0.5544l0.0124,4.9456l-4.899-0.0003
						C0.5897,5.5035,0.5797,5.5101,0.5703,5.5194z"/>
				</g>
			</g>
		</g>
	</g>
</g>
</svg>
